<svg xmlns:xlink="http://www.w3.org/1999/xlink" xmlns:dc="http://purl.org/dc/elements/1.1/" xmlns:cc="http://creativecommons.org/ns#" xmlns:rdf="http://www.w3.org/1999/02/22-rdf-syntax-ns#" xmlns:svg="http://www.w3.org/2000/svg" xmlns="http://www.w3.org/2000/svg" xmlns:sodipodi="http://sodipodi.sourceforge.net/DTD/sodipodi-0.dtd" xmlns:inkscape="http://www.inkscape.org/namespaces/inkscape" width="405.32120480066084" height="144" viewBox="0 0 32.898968 11.688141" version="1.1" id="svg240" sodipodi:docname="Header_Icon3.svg" inkscape:version="0.92.5 (2060ec1f9f, 2020-04-08)">
  <defs id="defs234">
    <linearGradient id="SVGID_1_" gradientUnits="userSpaceOnUse" x1="40.474098" y1="59.5327" x2="130.9603" y2="150.01891">
      <stop offset="0" style="stop-color:#00588B" id="stop96"/>
      <stop offset="1" style="stop-color:#32B3CA" id="stop98"/>
    </linearGradient>
  </defs>
  <sodipodi:namedview id="base" pagecolor="#ffffff" bordercolor="#666666" borderopacity="1.0" inkscape:pageopacity="0.0" inkscape:pageshadow="2" inkscape:zoom="0.5" inkscape:cx="-1328.2732" inkscape:cy="-566.06225" inkscape:document-units="mm" inkscape:current-layer="svg240" showgrid="false" inkscape:window-width="3424" inkscape:window-height="1698" inkscape:window-x="0" inkscape:window-y="54" inkscape:window-maximized="1"/>
  <metadata id="metadata237">
    <rdf:RDF>
      <cc:Work rdf:about="">
        <dc:format>image/svg+xml</dc:format>
        <dc:type rdf:resource="http://purl.org/dc/dcmitype/StillImage"/>
        <dc:title/>
      </cc:Work>
    </rdf:RDF>
  </metadata>
  <g inkscape:label="Ebene 1" inkscape:groupmode="layer" id="layer1" transform="matrix(0.2,0,0,0.2,-4.7171824,-23.015479)">
    <g id="HSB" transform="matrix(0.38058787,0,0,0.37757578,27.350402,108.33309)">
      <g id="g91">
        <path d="m 198.542,113.084 h -21.338 l -4.268,13.326 h -12.193 l 20.555,-58.877 h 13.152 l 20.642,58.877 H 202.81 Z m -18.465,-9.406 h 15.677 l -7.838,-24.387 z" id="path83" inkscape:connector-curvature="0"/>
        <path d="M 219.011,103.939 V 67.533 h 11.497 v 36.145 c 0,9.407 3.397,13.849 11.236,13.849 7.839,0 11.235,-4.442 11.235,-13.849 V 67.533 h 11.497 v 36.406 c 0,16.461 -9.319,23.342 -22.732,23.342 -13.413,0 -22.733,-6.968 -22.733,-23.342 z" id="path85" inkscape:connector-curvature="0"/>
        <path d="m 310.464,117.003 v 9.407 H 275.625 V 67.533 h 11.497 v 49.471 h 23.342 z" id="path87" inkscape:connector-curvature="0"/>
        <path d="m 317.52,67.533 h 11.497 V 126.41 H 317.52 Z" id="path89" inkscape:connector-curvature="0"/>
      </g>
      <path d="m 364.731,93.148 -7.489,-2.264 c -4.354,-1.394 -6.096,-3.57 -6.096,-7.054 0,-4.267 2.961,-7.402 8.36,-7.402 5.343,0 8.981,2.047 11.166,5.213 0.022,0.033 0.51,0.764 0.532,0.797 l 7.242,-7.241 c -3.163,-4.456 -8.891,-8.522 -18.94,-8.522 -14.456,0 -20.203,8.708 -20.203,17.852 0,7.315 3.657,13.062 13.933,16.284 l 7.402,2.264 c 4.441,1.394 6.618,3.484 6.618,7.14 0,4.441 -3.31,7.402 -9.317,7.402 -5.786,0 -8.978,-1.775 -11.128,-4.301 l -0.005,0.003 c 0,0 -0.033,-0.041 -0.087,-0.109 -0.139,-0.167 -0.271,-0.338 -0.402,-0.511 -0.521,-0.668 -1.386,-1.81 -2.269,-3.104 l -7.11,7.112 c 2.478,4.599 8.153,10.663 21.002,10.663 12.278,0 21.16,-6.619 21.16,-18.027 -0.001,-7.487 -3.832,-12.885 -14.369,-16.195 z" id="path93" inkscape:connector-curvature="0"/>
    </g>
    <g id="Schlüssel" transform="matrix(0.38058787,0,0,0.37757578,27.350402,108.33309)">
      <linearGradient id="linearGradient172" gradientUnits="userSpaceOnUse" x1="40.474098" y1="59.5327" x2="130.9603" y2="150.01891">
        <stop offset="0" style="stop-color:#00588B" id="stop168"/>
        <stop offset="1" style="stop-color:#32B3CA" id="stop170"/>
      </linearGradient>
      <path d="M 80.954,47.627 66.667,61.914 52.38,47.627 66.667,33.34 Z M 85.717,52.39 71.43,66.677 85.717,80.964 100.004,66.677 Z m -38.1,0 -14.287,14.287 33.337,33.337 14.287,-14.288 z m 90.487,90.486 -19.05,-19.05 19.05,-19.051 -14.287,-14.287 -19.05,19.05 -19.05,-19.05 -14.287,14.287 19.05,19.051 -19.05,19.049 14.287,14.287 19.049,-19.049 19.05,19.05 z" id="path101" style="fill:url(#SVGID_1_)" inkscape:connector-curvature="0"/>
    </g>
  </g>
</svg>